PathFileType	4	(X/Y/Z)	s04c0402.trc
DataRate	CameraRate	NumFrames	NumMarkers	Units	OrigDataRate	OrigDataStartFrame	OrigNumFrames
200	200	6	50	mm	200	1000	2000
Frame#	Time	racr			lacr			c7			jug			rlel			rdr			llel			ldr			s2			lic			ric			lasi			rasi			rpsi			lpsi			rgt			lgt			rth1			rth2			rth3			rth4			rlfc			rmfc			rsh1			rsh2			rsh3			rsh4			rlmal			rmmal			rcal			rtoe			rmt5			lth1			lth2			lth4			lth3			llfc			lmfc			lsh1			lsh2			lsh3			lsh4			llmal			lmmal			lcal			ltoe			lmt5			SBIKE			LBIKE			RBIKE			
		X1	Y1	Z1	X2	Y2	Z2	X3	Y3	Z3	X4	Y4	Z4	X5	Y5	Z5	X6	Y6	Z6	X7	Y7	Z7	X8	Y8	Z8	X9	Y9	Z9	X10	Y10	Z10	X11	Y11	Z11	X12	Y12	Z12	X13	Y13	Z13	X14	Y14	Z14	X15	Y15	Z15	X16	Y16	Z16	X17	Y17	Z17	X18	Y18	Z18	X19	Y19	Z19	X20	Y20	Z20	X21	Y21	Z21	X22	Y22	Z22	X23	Y23	Z23	X24	Y24	Z24	X25	Y25	Z25	X26	Y26	Z26	X27	Y27	Z27	X28	Y28	Z28	X29	Y29	Z29	X30	Y30	Z30	X31	Y31	Z31	X32	Y32	Z32	X33	Y33	Z33	X34	Y34	Z34	X35	Y35	Z35	X36	Y36	Z36	X37	Y37	Z37	X38	Y38	Z38	X39	Y39	Z39	X40	Y40	Z40	X41	Y41	Z41	X42	Y42	Z42	X43	Y43	Z43	X44	Y44	Z44	X45	Y45	Z45	X46	Y46	Z46	X47	Y47	Z47	X48	Y48	Z48	X49	Y49	Z49	X50	Y50	Z50	
1000	5.0000	843.707624	1234.564655	-96.353308	810.488544	1240.480830	-428.179405	859.072377	1330.394855	-273.832774	776.588827	1192.397142	-277.380893	550.370359	1145.468741	46.755219	693.334785	945.405205	-87.614983	586.336272	1151.705066	-605.824712	687.269762	938.680988	-492.460053	261.815024	1295.776113	-323.782872	430.727782	1221.864963	-446.139392	378.976899	1302.948842	-139.809112	445.895075	1172.611853	-393.334444	417.499075	1230.245264	-168.769385	294.689981	1339.565904	-286.672409	307.307920	1322.063210	-357.523343	334.602887	1266.025400	-119.304815	353.007391	1143.078746	-466.914896	435.398032	1140.973317	-100.388159	507.388645	1090.185259	-107.293797	546.125590	1014.356540	-106.429057	530.638857	1111.435890	-129.209625	626.927248	892.109608	-130.453387	607.189303	873.621529	-243.726964	538.879820	806.172320	-107.256997	493.605505	727.333958	-119.137585	417.572410	688.067464	-125.656058	519.017997	706.662768	-140.479814	317.115328	568.834759	-134.022662	340.337749	565.647993	-217.085370	241.784675	570.741192	-171.592705	495.622193	411.771722	-163.620798	426.031632	421.957984	-107.650543	359.760095	1058.209154	-476.373505	391.252069	977.144929	-473.830243	424.093019	981.117798	-460.421280	377.696239	889.038590	-479.595569	367.818821	723.404558	-464.668447	381.802779	687.215777	-354.351175	301.838942	612.607855	-487.179151	269.100707	534.797022	-466.514265	200.533470	478.225229	-466.487868	292.937628	521.012697	-437.975625	109.220431	358.508214	-463.681886	105.139584	361.797256	-374.061945	43.138098	397.596286	-423.751237	218.640432	148.151403	-404.429846	149.898259	179.850680	-470.577166	-184.991186	933.404992	-285.025302	-17.594317	80.089538	-485.374078	-17.491275	79.503470	-84.615396	
1001	5.0050	843.694031	1232.876719	-97.222034	809.686304	1241.165074	-429.140925	859.201765	1330.175882	-274.428273	775.926591	1192.686926	-278.787165	549.785198	1145.625325	45.981132	692.834278	945.235786	-87.999735	585.287228	1151.865552	-606.057117	687.968344	939.279097	-493.055220	262.546659	1298.691520	-322.349715	430.414286	1224.463168	-445.234597	379.329694	1303.264106	-138.498839	447.377083	1175.180500	-393.716971	417.236474	1230.952101	-167.892986	295.630218	1342.146722	-284.871396	307.631790	1324.908020	-355.174641	334.282060	1266.256662	-118.253071	354.731345	1145.955298	-466.494983	433.026706	1138.715136	-99.552429	504.319413	1086.941940	-106.267444	541.732592	1010.006905	-105.916564	528.024000	1107.582312	-127.799659	620.934044	885.422808	-131.195260	600.307614	868.185744	-242.918163	534.616374	796.583026	-106.811448	491.311959	717.006688	-119.114565	415.439243	676.514324	-125.737051	516.576958	697.436439	-141.302814	317.419270	556.655320	-134.169330	340.599354	553.992252	-217.391583	242.052400	555.645453	-171.792874	501.580229	406.471405	-163.082933	432.223613	414.623442	-106.679709	363.812104	1060.139461	-475.408284	397.685215	980.021570	-472.540175	430.297292	984.616124	-457.125576	386.691671	891.584280	-479.142719	379.091102	726.281074	-464.393639	391.873066	690.178378	-354.106623	310.752021	617.331020	-487.416516	275.254989	540.605045	-466.281632	204.917994	486.145599	-466.681448	298.094645	526.501456	-437.370171	109.191323	368.374208	-463.888888	106.194159	371.066529	-375.188260	43.615761	409.513074	-424.473943	211.045695	154.369020	-402.997117	144.307149	188.478399	-469.660682	-184.768869	933.535386	-284.527578	-17.535710	80.416563	-485.459759	-17.460971	79.495144	-84.582221	
1002	5.0100	843.682470	1231.460878	-98.283684	808.899970	1241.925697	-430.261364	859.277152	1330.013202	-275.114202	775.268963	1193.004092	-280.172212	549.369319	1145.854931	45.089550	692.691777	945.322121	-88.378532	584.195874	1152.071960	-606.352024	689.938425	940.750118	-495.065956	263.258935	1301.306764	-320.750685	430.121822	1226.901385	-444.298833	379.632304	1303.147897	-137.212660	447.748213	1176.659916	-393.309334	417.053627	1231.482312	-167.015836	296.475100	1344.267943	-283.043073	308.186327	1327.594716	-353.039755	333.993514	1265.906318	-117.068303	356.368640	1148.717791	-465.995755	430.458019	1135.596895	-98.593661	500.781542	1081.883650	-105.472998	537.039845	1005.092236	-105.622368	525.253265	1103.166085	-126.235659	613.253440	879.635884	-128.494515	593.356791	862.226060	-242.350805	529.789661	787.151809	-106.963306	488.372718	706.433456	-119.563955	413.380287	664.264414	-126.212533	513.619337	687.857821	-142.263036	318.133173	543.760251	-134.278700	341.467005	541.737815	-217.863275	243.210233	540.743149	-171.982788	507.032573	399.779098	-162.732715	437.462461	406.059599	-106.362871	367.768675	1062.017178	-474.790463	404.173849	982.867074	-471.172650	436.321062	988.583150	-455.725863	395.553839	894.204320	-478.615772	390.617219	729.281445	-464.168201	401.626844	693.349738	-353.603426	319.583449	621.910333	-487.207701	281.561122	546.649849	-465.881682	209.455476	494.369281	-466.668598	303.894260	532.455416	-436.756140	109.799907	378.668173	-463.967776	106.049297	381.575645	-375.136117	44.747030	421.808099	-424.443169	203.819063	160.901141	-402.750148	138.405112	197.479191	-469.392126	-184.496816	933.723431	-284.109922	-17.522018	80.610106	-485.409730	-17.461223	79.516923	-84.535366	
1003	5.0150	843.830157	1230.471785	-99.391895	808.111142	1242.688434	-431.424869	859.346852	1329.876794	-275.743001	774.667200	1193.307879	-281.241230	549.199626	1146.197461	44.180131	692.564342	945.381340	-88.685198	583.116377	1152.282274	-606.683729	690.787650	941.495399	-495.930919	264.081384	1303.207912	-319.508713	429.851948	1229.304154	-443.440088	380.000500	1302.576627	-135.833351	448.057677	1178.524154	-392.805601	416.953149	1231.821151	-166.145281	297.090833	1345.903035	-281.245630	311.578778	1329.680777	-353.682671	332.964103	1264.568401	-116.179239	359.083547	1152.120871	-467.263170	427.885332	1131.873080	-97.596962	496.974655	1077.384184	-103.843652	532.116730	999.663383	-105.306950	522.418925	1098.321193	-124.539488	606.898780	872.255303	-129.047652	586.472161	855.761645	-241.877626	524.889553	777.250049	-107.121487	485.438496	695.681591	-120.324310	411.493397	651.655274	-126.847038	510.744297	677.883097	-143.392363	319.404142	530.314370	-134.330613	342.746567	529.331684	-218.405441	244.493862	526.394843	-172.206260	512.035659	392.240536	-162.536596	442.290257	396.950337	-106.271702	372.071456	1063.996387	-474.315742	410.641275	985.926000	-469.981101	442.363691	992.472847	-453.972313	405.378067	897.340325	-476.873669	401.821477	732.294438	-463.608469	411.138809	696.628761	-352.948862	328.340731	626.360045	-486.830699	287.922945	552.458930	-465.362753	214.031912	502.617937	-466.374765	308.978733	538.017845	-435.489260	110.853988	388.783543	-463.521207	106.916358	391.977319	-375.416110	46.745448	434.116739	-423.874823	197.179014	167.460632	-402.861804	132.973844	206.603396	-469.362400	-184.173416	933.928176	-283.694069	-17.511700	80.822100	-485.319359	-17.434220	79.551896	-84.517020	
1004	5.0200	843.943642	1229.561759	-100.530393	807.337103	1243.454647	-432.685009	859.386632	1329.663945	-277.347371	773.909266	1193.600773	-282.817624	549.166348	1146.617004	43.233042	692.585464	945.350993	-89.062743	582.017082	1152.445223	-607.033884	691.454926	942.077285	-496.690498	264.636792	1304.718677	-318.432244	429.398755	1231.962762	-443.519848	380.428580	1301.751735	-134.267311	448.381906	1180.063382	-392.591108	416.937687	1231.953750	-165.288698	297.450444	1347.098893	-279.165344	312.244693	1331.621942	-351.771822	332.321859	1262.825513	-114.945957	360.584288	1154.508563	-465.683404	425.135141	1127.712573	-96.475104	493.508063	1072.253399	-103.204249	527.336189	993.937727	-105.059590	519.507727	1092.980116	-122.712444	600.088579	864.925737	-129.169887	579.785366	848.999695	-241.532190	519.610835	767.527975	-107.036319	482.224447	684.973385	-120.849080	409.548933	639.011852	-127.305571	507.936736	668.075099	-144.188018	320.953863	516.940579	-134.427936	344.145577	517.064826	-218.870277	246.066176	512.489806	-172.542100	516.565637	383.823892	-162.556315	446.484130	387.424925	-106.211268	376.321945	1066.062912	-473.599541	416.952408	989.084673	-468.820421	448.228277	996.504790	-452.404482	414.744960	900.404609	-475.944820	412.838172	735.253993	-462.968435	420.344637	700.037068	-352.114322	336.704288	630.852226	-486.289182	294.071042	558.230189	-464.626500	218.715817	510.527664	-465.936252	314.410819	543.148276	-434.267623	112.349825	399.044198	-463.254520	108.540465	401.688025	-375.752763	49.223582	445.687818	-423.516297	191.406748	174.214523	-402.985777	128.527402	215.725696	-469.241755	-183.894005	934.118678	-283.266099	-17.484189	80.983955	-485.269563	-17.428920	79.621332	-84.461841	
1005	5.0250	844.220515	1228.990994	-101.712603	806.665830	1244.178791	-433.987660	859.400375	1329.519207	-277.739600	773.474693	1193.758942	-283.481541	549.275625	1147.100259	42.340423	692.499393	945.362088	-89.376061	580.834121	1152.546290	-607.346726	691.840221	942.501221	-497.279426	265.379073	1305.402121	-317.148326	428.996153	1234.166228	-443.034916	380.857913	1300.469189	-132.683789	448.722889	1181.471626	-392.431826	417.009825	1231.864996	-164.453444	297.601693	1347.682632	-277.172128	312.619417	1333.107451	-350.042175	332.088929	1260.647933	-113.372694	362.679707	1156.999799	-465.580527	422.459749	1123.063175	-95.481866	490.066147	1066.760884	-102.705268	522.490728	988.154713	-105.004076	515.324817	1087.339477	-121.078469	593.079647	857.709047	-129.074542	573.367669	842.000772	-241.350110	514.325820	758.582936	-106.992719	479.273070	675.050439	-121.094957	408.019599	627.197721	-127.772789	506.069140	658.829853	-144.275773	322.508138	504.063825	-134.576059	346.335684	504.437220	-219.057133	247.772887	499.097180	-172.674320	520.368932	374.774917	-162.464041	450.243322	377.473871	-106.225354	380.827254	1068.181745	-472.860246	422.884152	992.201669	-468.196469	453.897492	1000.441514	-451.002304	423.186500	903.554780	-475.130039	422.974845	738.696770	-462.534584	429.264387	703.411664	-351.138873	344.604451	635.231164	-485.248798	300.063808	563.814453	-463.806282	223.467511	517.994600	-465.507813	320.012421	548.493190	-433.550786	114.228592	408.862282	-462.988150	110.312803	411.270363	-375.706732	52.406434	457.192866	-423.434956	186.209142	181.271452	-402.954906	124.725118	224.721992	-469.004939	-183.640844	934.235464	-282.832372	-17.463503	81.128738	-485.218482	-17.394906	79.628235	-84.444772	
